# Blender 3.4.1
# www.blender.org
mtllib TinkerHoledCentered.mtl
o tinkerholed0.1
v 0.154602 2.791985 -0.475804
v 0.293999 2.791985 -0.404704
v 0.000000 2.791985 -0.500204
v 0.154602 -2.808617 -0.475804
v 0.404701 2.791985 -0.294004
v 0.000000 -2.808617 -0.500205
v -0.154602 2.791985 -0.475804
v 0.293999 -2.808617 -0.404704
v 0.404701 -2.808617 -0.294005
v 0.475800 -2.808617 -0.154605
v -0.404701 -2.808617 -0.294005
v 0.475800 2.791985 -0.154604
v -0.500298 2.791985 -0.000004
v 0.500198 -2.808617 -0.000005
v 0.500198 2.791985 -0.000004
v 0.475800 -2.808617 0.154596
v 0.404701 -2.808617 0.293996
v 0.475800 2.791985 0.154596
v 0.404701 2.791985 0.293996
v 0.293999 2.791985 0.404696
v 0.293999 -2.808617 0.404696
v 0.154602 2.791985 0.475796
v 0.154602 -2.808617 0.475796
v 0.000000 2.791985 0.500296
v -0.154602 2.791985 0.475796
v 0.000000 -2.808617 0.500296
v -0.293999 2.791985 0.404696
v -0.293999 -2.808617 0.404696
v -0.404701 2.791985 0.293996
v -0.475800 2.791985 0.154596
v -0.475800 -2.808617 0.154596
v -0.500298 -2.808617 -0.000005
v -0.475800 2.791985 -0.154604
v -0.475800 -2.808617 -0.154605
v -0.404701 -2.808617 0.293996
v -0.154602 -2.808617 0.475796
v -0.404701 2.791985 -0.294004
v -0.293999 -2.808617 -0.404704
v -0.293999 2.791985 -0.404704
v -0.154602 -2.808617 -0.475804
v 1.000000 3.791687 0.999997
v 1.000000 -3.708313 0.999995
v 1.000000 3.791687 -1.000003
v -1.000000 -3.708313 0.999995
v 1.000000 -3.708313 -1.000005
v -1.000000 3.791687 0.999997
v -1.000000 3.791687 -1.000003
v -1.000000 -3.708313 -1.000005
vn -0.0000 -1.0000 -0.0000
vn -0.4544 -0.0000 0.8908
vn -0.1559 -0.0000 0.9878
vn 0.1559 -0.0000 0.9878
vn -0.0000 1.0000 -0.0000
vn -0.7071 -0.0000 0.7071
vn -0.8908 -0.0000 0.4543
vn -0.9878 -0.0000 0.1559
vn -0.9878 -0.0000 -0.1559
vn -0.8908 -0.0000 -0.4543
vn -0.7071 -0.0000 -0.7071
vn -0.4544 -0.0000 -0.8908
vn -0.1565 -0.0000 -0.9877
vn 0.1565 -0.0000 -0.9877
vn 0.4544 -0.0000 -0.8908
vn 0.7071 -0.0000 -0.7071
vn 0.8908 -0.0000 -0.4543
vn 0.9877 -0.0000 -0.1565
vn 0.9877 -0.0000 0.1565
vn 0.8908 -0.0000 0.4543
vn 0.7071 -0.0000 0.7071
vn 0.4544 -0.0000 0.8908
vn 1.0000 -0.0000 -0.0000
vn -0.0000 -0.0000 1.0000
vn -1.0000 -0.0000 -0.0000
vn -0.0000 -0.0000 -1.0000
s 0
usemtl Default_OBJ.001
f 1//1 2//1 3//1
f 1//2 4//2 2//2
f 2//1 5//1 3//1
f 4//3 1//3 3//3
f 3//3 6//3 4//3
f 3//4 7//4 6//4
f 6//5 8//5 4//5
f 6//5 9//5 8//5
f 8//2 2//2 4//2
f 8//6 5//6 2//6
f 9//6 5//6 8//6
f 9//7 10//7 5//7
f 11//5 10//5 9//5
f 12//7 5//7 10//7
f 13//1 5//1 12//1
f 14//8 12//8 10//8
f 14//8 15//8 12//8
f 11//5 14//5 10//5
f 11//5 16//5 14//5
f 11//5 17//5 16//5
f 16//9 18//9 14//9
f 18//10 16//10 19//10
f 14//9 18//9 15//9
f 13//1 15//1 18//1
f 13//1 12//1 15//1
f 13//1 18//1 19//1
f 13//1 19//1 20//1
f 21//11 20//11 19//11
f 13//1 20//1 22//1
f 23//12 22//12 20//12
f 13//1 22//1 24//1
f 22//13 23//13 24//13
f 13//1 24//1 25//1
f 24//14 26//14 25//14
f 13//1 25//1 27//1
f 27//15 25//15 28//15
f 13//1 27//1 29//1
f 27//16 28//16 29//16
f 13//1 29//1 30//1
f 29//17 31//17 30//17
f 32//18 13//18 30//18
f 32//19 33//19 13//19
f 30//18 31//18 32//18
f 11//5 32//5 31//5
f 11//5 34//5 32//5
f 11//5 31//5 35//5
f 29//17 35//17 31//17
f 11//5 35//5 28//5
f 35//16 29//16 28//16
f 11//5 28//5 36//5
f 25//15 36//15 28//15
f 11//5 36//5 26//5
f 36//14 25//14 26//14
f 11//5 26//5 23//5
f 26//13 24//13 23//13
f 11//5 23//5 21//5
f 20//12 21//12 23//12
f 11//5 21//5 17//5
f 21//11 19//11 17//11
f 17//10 19//10 16//10
f 33//20 34//20 11//20
f 33//19 32//19 34//19
f 11//20 37//20 33//20
f 11//21 38//21 37//21
f 37//1 5//1 33//1
f 37//1 39//1 5//1
f 13//1 33//1 5//1
f 39//21 37//21 38//21
f 7//1 5//1 39//1
f 7//1 3//1 5//1
f 38//22 7//22 39//22
f 40//22 7//22 38//22
f 40//4 6//4 7//4
f 38//5 9//5 40//5
f 11//5 9//5 38//5
f 6//5 40//5 9//5
f 41//23 42//23 43//23
f 44//24 42//24 41//24
f 45//23 43//23 42//23
f 41//5 43//5 46//5
f 47//5 46//5 43//5
f 41//24 46//24 44//24
f 46//25 48//25 44//25
f 46//25 47//25 48//25
f 44//1 48//1 45//1
f 45//26 48//26 43//26
f 44//1 45//1 42//1
f 47//26 43//26 48//26
