# Blender 3.4.1
# www.blender.org
mtllib TinkerCadCentered.mtl
o tinkercad0.1
v 0.991402 0.965515 -0.168658
v 0.635796 0.965515 0.591642
v 0.708496 0.965515 0.525742
v 0.774399 0.965515 0.453041
v 0.832901 0.965515 0.374242
v 0.883301 0.965515 0.290042
v 0.925301 0.965515 0.201342
v 0.958298 0.965515 0.108941
v 0.982201 0.965515 0.013742
v 0.996597 0.965515 -0.083358
v 1.000778 0.965515 -0.168658
v 0.996597 -1.034485 -0.083359
v 1.001396 0.965515 -2.168658
v 0.991402 0.965515 -2.168658
v 1.001396 0.965515 -0.181358
v -0.998604 0.965515 -2.168658
v -0.998604 0.965515 -0.181358
v -1.008598 0.965515 -2.168658
v -1.008598 0.965515 -0.168658
v -0.997978 0.965515 -0.168658
v -0.008598 1.965515 -2.168658
v -0.008598 1.965515 -0.168658
v -0.193703 0.965515 0.799442
v -0.096603 0.965515 0.813842
v 0.001396 0.965515 0.818642
v 0.099396 0.965515 0.813842
v 0.196503 0.965515 0.799442
v 0.291702 0.965515 0.775542
v 0.384102 0.965515 0.742542
v 0.472801 0.965515 0.700542
v 0.556999 0.965515 0.650142
v -0.955498 0.965515 0.108941
v -0.979401 0.965515 0.013742
v -0.993797 0.965515 -0.083358
v -0.922501 0.965515 0.201342
v -0.880501 0.965515 0.290042
v -0.830101 0.965515 0.374242
v -0.771599 0.965515 0.453041
v -0.705704 0.965515 0.525742
v -0.633003 0.965515 0.591642
v -0.554199 0.965515 0.650142
v -0.470001 0.965515 0.700542
v -0.381302 0.965515 0.742542
v -0.288902 0.965515 0.775542
v 0.958298 -1.034485 0.108941
v -0.955498 -1.034485 0.108941
v 0.982201 -1.034485 0.013741
v 0.925301 -1.034485 0.201341
v 0.883301 -1.034485 0.290041
v 0.832901 -1.034485 0.374241
v 0.774399 -1.034485 0.453041
v 0.708496 -1.034485 0.525741
v 0.291702 -1.034485 0.775541
v 0.384102 -1.034485 0.742541
v 0.472801 -1.034485 0.700541
v 0.196503 -1.034485 0.799441
v 0.099396 -1.034485 0.813841
v 0.001396 -1.034485 0.818641
v -0.096603 -1.034485 0.813841
v -0.193703 -1.034485 0.799441
v -0.288902 -1.034485 0.775541
v 0.556999 -1.034485 0.650141
v -0.381302 -1.034485 0.742541
v -0.470001 -1.034485 0.700541
v -0.554199 -1.034485 0.650141
v -0.633003 -1.034485 0.591641
v -0.705704 -1.034485 0.525741
v -0.771599 -1.034485 0.453041
v -0.830101 -1.034485 0.374241
v -0.880501 -1.034485 0.290041
v -0.922501 -1.034485 0.201341
v -0.979401 -1.034485 0.013741
v 0.991402 -1.034485 -0.191359
v -0.993797 -1.034485 -0.083359
v -0.998604 -1.034485 -0.181359
v 0.635796 -1.034485 0.591641
v 1.001396 -1.034485 -0.181359
v -0.998604 -1.034485 -2.181359
v -0.998604 0.965515 -2.181358
v 0.991402 -1.034485 -2.181359
v 1.001396 0.965515 -2.181358
v -0.008598 -3.034485 -1.191359
v -0.998604 -1.034485 -0.191359
v 1.001396 -1.034485 -2.181359
v 0.991402 -1.034485 -2.191359
v -1.008598 -1.034485 -0.191359
v -1.008598 -1.034485 -2.191359
vn -0.0000 1.0000 -0.0000
vn 0.9988 -0.0000 0.0490
vn -0.0000 -1.0000 -0.0000
vn -0.7071 0.7071 -0.0000
vn 0.7071 0.7071 -0.0000
vn 0.6716 -0.0000 0.7409
vn 0.7409 -0.0000 0.6716
vn 0.3363 -0.0000 0.9417
vn 0.9038 -0.0000 0.4280
vn 0.4280 -0.0000 0.9038
vn 0.9418 -0.0000 0.3363
vn 0.9892 -0.0000 0.1467
vn -0.9988 -0.0000 0.0492
vn -0.9988 -0.0000 0.0490
vn 0.9988 -0.0000 0.0489
vn -0.9418 -0.0000 0.3363
vn -0.0489 -0.0000 0.9988
vn -0.9038 -0.0000 0.4280
vn 0.0489 -0.0000 0.9988
vn -0.7409 -0.0000 0.6716
vn -0.6716 -0.0000 0.7409
vn -0.5961 -0.0000 0.8029
vn -0.0000 -0.0000 -1.0000
vn -0.5136 -0.0000 0.8580
vn -0.4280 -0.0000 0.9038
vn 0.8944 -0.4472 -0.0000
vn -0.3363 -0.0000 0.9417
vn -1.0000 -0.0000 -0.0000
vn 1.0000 -0.0000 -0.0000
vn -0.0000 -0.4472 0.8944
vn -0.9892 -0.0000 0.1467
vn -0.9699 -0.0000 0.2435
vn 0.8029 -0.0000 0.5961
vn 0.8580 -0.0000 0.5136
vn 0.9699 -0.0000 0.2435
vn 0.9988 -0.0000 0.0486
vn -0.2435 -0.0000 0.9699
vn -0.1467 -0.0000 0.9892
vn 0.1467 -0.0000 0.9892
vn 0.2435 -0.0000 0.9699
vn 0.5136 -0.0000 0.8580
vn 0.5961 -0.0000 0.8029
vn -0.8580 -0.0000 0.5136
vn -0.8029 -0.0000 0.5961
vn -0.0000 -0.0000 1.0000
vn -0.8944 -0.4472 -0.0000
vn -0.0000 -0.4472 -0.8944
s 0
usemtl Default_OBJ
f 1//1 2//1 3//1
f 1//1 3//1 4//1
f 1//1 4//1 5//1
f 1//1 5//1 6//1
f 1//1 6//1 7//1
f 1//1 7//1 8//1
f 1//1 8//1 9//1
f 1//1 9//1 10//1
f 11//1 1//1 10//1
f 10//2 12//2 11//2
f 13//1 14//1 15//1
f 14//1 1//1 15//1
f 11//1 15//1 1//1
f 16//3 17//3 18//3
f 19//3 18//3 17//3
f 19//3 17//3 20//3
f 21//4 18//4 19//4
f 22//4 21//4 19//4
f 22//5 14//5 21//5
f 1//5 14//5 22//5
f 1//1 23//1 24//1
f 1//1 24//1 25//1
f 1//1 25//1 26//1
f 1//1 26//1 27//1
f 1//1 27//1 28//1
f 1//1 28//1 29//1
f 1//1 29//1 30//1
f 1//1 30//1 31//1
f 31//1 2//1 1//1
f 32//1 1//1 33//1
f 34//1 33//1 1//1
f 35//1 1//1 32//1
f 36//1 1//1 35//1
f 37//1 1//1 36//1
f 38//1 1//1 37//1
f 39//1 1//1 38//1
f 40//1 1//1 39//1
f 41//1 1//1 40//1
f 42//1 1//1 41//1
f 43//1 1//1 42//1
f 44//1 1//1 43//1
f 23//1 1//1 44//1
f 20//1 34//1 1//1
f 45//3 46//3 47//3
f 48//3 46//3 45//3
f 49//3 46//3 48//3
f 50//3 46//3 49//3
f 51//3 46//3 50//3
f 52//3 46//3 51//3
f 53//3 46//3 54//3
f 55//3 54//3 46//3
f 56//3 46//3 53//3
f 57//3 46//3 56//3
f 58//3 46//3 57//3
f 59//3 46//3 58//3
f 60//3 46//3 59//3
f 61//3 46//3 60//3
f 62//3 55//3 46//3
f 63//3 64//3 61//3
f 61//3 64//3 65//3
f 61//3 65//3 66//3
f 61//3 66//3 67//3
f 61//3 67//3 68//3
f 61//3 68//3 69//3
f 61//3 69//3 70//3
f 61//3 70//3 71//3
f 61//3 71//3 46//3
f 72//3 73//3 46//3
f 74//3 73//3 72//3
f 75//3 73//3 74//3
f 76//3 62//3 46//3
f 3//6 76//6 52//6
f 3//7 52//7 51//7
f 54//8 29//8 53//8
f 48//9 7//9 49//9
f 29//10 54//10 55//10
f 7//11 48//11 45//11
f 10//12 47//12 12//12
f 17//13 75//13 20//13
f 74//14 20//14 75//14
f 77//15 11//15 12//15
f 71//16 35//16 46//16
f 58//17 25//17 59//17
f 70//18 35//18 71//18
f 25//19 58//19 57//19
f 67//20 39//20 68//20
f 66//21 39//21 67//21
f 65//22 41//22 66//22
f 78//23 79//23 80//23
f 81//23 80//23 79//23
f 41//24 65//24 64//24
f 13//1 81//1 14//1
f 81//1 79//1 14//1
f 16//1 14//1 79//1
f 63//25 43//25 64//25
f 73//26 82//26 80//26
f 43//27 63//27 61//27
f 16//23 18//23 21//23
f 16//23 21//23 14//23
f 83//28 75//28 17//28
f 17//28 16//28 83//28
f 81//29 13//29 84//29
f 84//29 13//29 77//29
f 85//26 80//26 82//26
f 86//30 82//30 83//30
f 73//30 83//30 82//30
f 80//3 84//3 73//3
f 84//3 77//3 73//3
f 12//3 46//3 77//3
f 73//3 77//3 46//3
f 83//3 73//3 75//3
f 76//3 46//3 52//3
f 47//3 46//3 12//3
f 74//14 34//14 20//14
f 34//31 74//31 33//31
f 72//31 33//31 74//31
f 33//32 72//32 32//32
f 46//32 32//32 72//32
f 35//16 32//16 46//16
f 51//7 4//7 3//7
f 50//33 5//33 4//33
f 50//33 4//33 51//33
f 5//34 50//34 6//34
f 49//34 6//34 50//34
f 7//9 6//9 49//9
f 45//11 8//11 7//11
f 47//35 9//35 8//35
f 47//35 8//35 45//35
f 9//12 47//12 10//12
f 15//36 11//36 77//36
f 44//37 61//37 23//37
f 23//38 60//38 24//38
f 59//38 24//38 60//38
f 25//17 24//17 59//17
f 57//19 26//19 25//19
f 56//39 27//39 26//39
f 56//39 26//39 57//39
f 27//40 56//40 28//40
f 53//40 28//40 56//40
f 29//8 28//8 53//8
f 55//10 30//10 29//10
f 62//41 31//41 30//41
f 62//41 30//41 55//41
f 76//42 2//42 62//42
f 31//42 62//42 2//42
f 3//6 2//6 76//6
f 70//18 36//18 35//18
f 69//43 37//43 36//43
f 69//43 36//43 70//43
f 37//44 69//44 38//44
f 68//44 38//44 69//44
f 39//20 38//20 68//20
f 66//21 40//21 39//21
f 41//22 40//22 66//22
f 64//24 42//24 41//24
f 43//25 42//25 64//25
f 61//27 44//27 43//27
f 60//37 23//37 61//37
f 19//45 20//45 22//45
f 1//45 22//45 20//45
f 86//46 87//46 82//46
f 87//47 85//47 82//47
f 86//1 83//1 78//1
f 85//1 87//1 78//1
f 86//1 78//1 87//1
f 16//28 79//28 78//28
f 16//28 78//28 83//28
f 15//29 77//29 13//29
f 85//1 78//1 80//1
f 84//23 80//23 81//23
